<svg width="80" height="80" viewBox="0 0 80 80" fill="none" xmlns="http://www.w3.org/2000/svg">
<path d="M65.2655 13.7164L58.2098 5.34299C57.9803 5.07077 57.7203 4.85593 57.4384 4.69174L57.4396 4.6893L50.0391 0.368622C49.0619 -0.199005 47.8027 -0.114776 46.4832 0.646943L19.0179 16.5039C16.0223 18.2336 13.5938 22.8735 13.5938 26.8676V70.9259C13.5938 73.1677 14.3591 74.729 15.5597 75.3625L22.7704 79.5758C22.7716 79.577 22.7734 79.5776 22.7747 79.5782L22.8705 79.6344V79.6338C23.8214 80.1825 25.061 80.1324 26.4172 79.3493L60.9381 59.4183C63.9337 57.6892 66.3623 53.0487 66.3623 49.0551V17.4438C66.3623 15.8697 65.9772 14.5611 65.2655 13.7164Z" fill="#551981"/>
<path d="M60.9381 59.4183L26.4172 79.3493C23.4216 81.0784 20.993 79.2425 20.993 75.2484V31.1907C20.993 27.196 23.4216 22.5567 26.4172 20.827L53.8825 4.97003C55.5829 3.98859 57.1845 4.12653 58.2098 5.34296L65.2655 13.7164C65.9772 14.5611 66.3623 15.8697 66.3623 17.4438V49.0551C66.3623 53.0486 63.9337 57.6892 60.9381 59.4183Z" fill="#9B63C4"/>
<path d="M28.7585 19.4604V37.9413C28.7585 40.4162 31.4374 41.9629 33.5803 40.7257L49.4006 31.5918C51.2134 30.545 52.3297 28.6108 52.3297 26.5179V5.79529L28.7585 19.4604Z" fill="#E7DBFF"/>
<path d="M52.3297 5.79529L44.9481 1.5332L21.3281 15.1703L28.7585 19.4604L52.3297 5.79529Z" fill="#C0A9F0"/>
<path d="M32.8906 22.3273V35.6183L40.9058 30.9906V17.6996L32.8906 22.3273Z" fill="#7421B0"/>
<path d="M31.5442 49.9945L55.9442 35.907C57.1521 35.21 58.6615 36.0816 58.6615 37.4762V51.5137C58.6615 53.504 57.5995 55.3436 55.8759 56.3385L31.4758 70.426C30.2679 71.1231 28.7585 70.2515 28.7585 68.8574V54.8194C28.7585 52.829 29.8206 50.99 31.5442 49.9945Z" fill="#E7DBFF"/>
<path d="M53.9935 44.8847L33.3618 56.8665C32.6239 57.2925 32.0258 56.8403 32.0258 55.8564C32.0258 54.8719 32.6239 53.7293 33.3618 53.3033L53.9935 41.3215C54.7314 40.8954 55.3302 41.3477 55.3302 42.3316C55.3302 43.3155 54.7314 44.4587 53.9935 44.8847Z" fill="#7421B0"/>
<path d="M53.9935 52.8174L33.3618 64.7992C32.6239 65.2253 32.0258 64.773 32.0258 63.7891C32.0258 62.8052 32.6239 61.662 33.3618 61.236L53.9935 49.2542C54.7314 48.8282 55.3302 49.2804 55.3302 50.2643C55.3302 51.2482 54.7314 52.3914 53.9935 52.8174Z" fill="#7421B0"/>
</svg>
